<svg width="28" height="29" viewBox="0 0 28 29" fill="none" xmlns="http://www.w3.org/2000/svg">
<path d="M22.75 0.5H10.5C8.567 0.5 7 2.067 7 4C5.067 4 3.5 5.567 3.5 7.5V25C3.5 26.933 5.067 28.5 7 28.5H19.25C21.183 28.5 22.75 26.933 22.75 25C24.683 25 26.25 23.433 26.25 21.5V4C26.25 2.067 24.683 0.5 22.75 0.5ZM22.75 23.25V7.5C22.75 5.567 21.183 4 19.25 4H8.75C8.75 3.0335 9.5335 2.25 10.5 2.25H22.75C23.7165 2.25 24.5 3.0335 24.5 4V21.5C24.5 22.4665 23.7165 23.25 22.75 23.25ZM5.25 7.5C5.25 6.5335 6.0335 5.75 7 5.75H19.25C20.2165 5.75 21 6.5335 21 7.5V25C21 25.9665 20.2165 26.75 19.25 26.75H7C6.0335 26.75 5.25 25.9665 5.25 25V7.5Z" fill="white"/>
</svg>
