<svg width="28" height="29" viewBox="0 0 28 29" fill="none" xmlns="http://www.w3.org/2000/svg">
<path d="M18.9937 11.2563C19.3354 11.598 19.3354 12.152 18.9937 12.4937L13.7437 17.7437C13.5796 17.9078 13.3571 18 13.125 18C12.8929 18 12.6704 17.9078 12.5063 17.7437L9.88128 15.1187C9.53957 14.777 9.53957 14.223 9.88128 13.8813C10.223 13.5396 10.777 13.5396 11.1187 13.8813L13.125 15.8876L17.7563 11.2563C18.098 10.9146 18.652 10.9146 18.9937 11.2563Z" fill="white"/>
<path d="M7 0.5C5.067 0.5 3.5 2.067 3.5 4V25C3.5 26.933 5.067 28.5 7 28.5H21C22.933 28.5 24.5 26.933 24.5 25V4C24.5 2.067 22.933 0.5 21 0.5H7ZM7 2.25H21C21.9665 2.25 22.75 3.0335 22.75 4V25C22.75 25.9665 21.9665 26.75 21 26.75H7C6.0335 26.75 5.25 25.9665 5.25 25V4C5.25 3.0335 6.0335 2.25 7 2.25Z" fill="white"/>
</svg>
