<svg width="683" height="682" viewBox="0 0 683 682" fill="none" xmlns="http://www.w3.org/2000/svg">
<path d="M310.667 1.33311C244.8 7.73311 184 31.9998 130.667 73.0665C104.667 93.0665 70.9336 130.666 51.4669 161.333C43.0669 174.533 26.6669 208.133 20.8002 224.133C-20.5331 337.067 1.73357 466.4 78.5336 558.667C132.534 623.733 207.867 666 292.267 678.8C319.334 682.933 363.334 682.933 390.4 678.8C492.934 663.2 581.467 604 634.267 516C681.067 437.733 694.534 343.2 671.334 254.8C664.934 230.8 659.067 215.2 647.334 191.333C629.734 155.466 611.467 130 582.134 100.533C552.667 71.1998 527.2 52.9331 491.334 35.3331C458.534 19.1998 428.134 9.5998 392.667 3.9998C373.067 0.93313 329.334 -0.533557 310.667 1.33311ZM380 27.3331C450.8 36.1331 514 67.0664 564.8 117.866C625.2 178.4 657.334 255.866 657.334 341.333C657.334 414.533 633.867 481.467 587.867 539.333C577.6 552.4 552.8 577.867 551.2 577.2C538 571.467 431.6 516.667 428.934 514.133C421.467 507.2 420 501.467 420 478.267V457.333L428.534 444.933C438.267 430.933 451.2 406.667 456.534 392.667C459.6 384.667 460.934 382.8 466 379.733C469.2 377.867 474 373.333 476.534 369.733C484.667 358.8 485.6 353.6 485.067 317.733C484.667 287.333 484.534 285.733 481.467 280C479.734 276.666 477.6 273.066 476.667 272C475.334 270.4 474.8 259.866 474.4 226.666C473.867 183.866 473.867 183.2 470.267 172.666C465.334 157.6 458.267 146.4 446.667 134.533C423.067 110.666 390.4 99.8664 341.334 99.8664C292.267 99.8664 259.6 110.666 236 134.533C224.4 146.4 217.334 157.6 212.4 172.666C208.8 183.2 208.8 183.866 208.267 226.666C207.867 259.866 207.334 270.4 206 272C205.067 273.066 202.934 276.666 201.2 280C198.134 285.866 198 286.8 198 320C198 354 198 354 201.467 361.467C203.467 365.6 207.067 371.333 209.6 374.133C212.267 377.2 214.934 382.133 216 386C220.667 403.333 231.467 425.867 244.8 446.533L252.267 457.733L251.734 479.2C251.334 499.067 251.067 501.067 248.134 506.267C246.267 509.467 242.667 513.467 240.134 515.2C237.467 517.067 213.467 530.4 186.667 545.067C159.867 559.733 136.134 572.8 133.734 574.133L129.467 576.667L119.867 567.333C92.8002 540.667 68.4002 505.467 52.5336 470.533C21.2002 400.8 16.5336 318 40.0002 244.666C61.6002 177.333 107.067 117.466 166.667 77.7331C206.667 51.0665 253.467 33.5998 301.467 27.4665C320.934 24.9331 359.867 24.9331 380 27.3331ZM364.667 125.333C409.734 130.4 436.267 148.8 447.467 182.666C449.6 189.2 450 195.067 450 234.933V279.866L454.4 284.4C456.8 286.8 459.334 290.933 460 293.467C461.6 299.067 461.734 340.133 460.134 347.2C458.534 353.6 453.2 359.333 445.867 362.133C440.4 364.133 440.134 364.667 436 376.4C427.867 399.2 415.2 422.533 400.4 441.467L394.667 448.8V473.067C394.667 500.133 395.867 508 401.6 518.8C408.8 532.667 411.6 534.4 473.467 565.333C538.267 597.867 533.2 593.467 517.6 603.867C465.2 639.067 404.667 657.333 341.334 657.333C290.134 657.333 243.734 646.133 198.134 623.067C182.267 614.933 150.667 595.2 150.667 593.467C150.8 593.067 173.867 580.133 202.267 564.667C235.467 546.667 256 534.667 260.134 530.933C268 523.867 274.134 512 276 500C276.667 495.2 277.334 481.867 277.334 470.4V449.467L269.334 438.4C255.6 419.2 243.6 393.867 238 372.267C235.867 364.267 234.8 362.133 231.2 359.733C222.8 354 222 351.2 221.6 325.467C220.934 295.2 221.467 291.866 228.134 284.666L233.467 278.933L233.334 234.4C233.067 185.466 233.334 183.466 241.734 167.333C254.4 143.333 280.134 129.733 322 124.8C330.934 123.866 353.334 124.133 364.667 125.333Z" fill="white"/>
</svg>
