<svg width="32" height="32" viewBox="0 0 32 32" fill="none" xmlns="http://www.w3.org/2000/svg">
<path d="M7 11.5C7 10.2574 8.00736 9.25 9.25 9.25H22.75C23.9926 9.25 25 10.2574 25 11.5V20.5C25 21.7426 23.9926 22.75 22.75 22.75H9.25C8.00736 22.75 7 21.7426 7 20.5V11.5ZM9.25 10.375C8.62868 10.375 8.125 10.8787 8.125 11.5V11.744L16 16.469L23.875 11.744V11.5C23.875 10.8787 23.3713 10.375 22.75 10.375H9.25ZM23.875 13.056L18.5784 16.2339L23.875 19.4934V13.056ZM23.837 20.7909L17.4916 16.886L16 17.781L14.5084 16.886L8.16298 20.7909C8.29121 21.2712 8.72929 21.625 9.25 21.625H22.75C23.2707 21.625 23.7088 21.2712 23.837 20.7909ZM8.125 19.4934L13.4216 16.2339L8.125 13.056V19.4934Z" fill="white"/>
</svg>
