<svg width="28" height="29" viewBox="0 0 28 29" fill="none" xmlns="http://www.w3.org/2000/svg">
<path d="M21.875 28.5C25.2577 28.5 28 25.7577 28 22.375C28 18.9923 25.2577 16.25 21.875 16.25C18.4923 16.25 15.75 18.9923 15.75 22.375C15.75 25.7577 18.4923 28.5 21.875 28.5ZM24.8128 20.6377L22.4761 24.5322C22.0368 25.2644 21.0263 25.3888 20.4226 24.785L19.0688 23.4312C18.7271 23.0895 18.7271 22.5355 19.0688 22.1938C19.4105 21.8521 19.9645 21.8521 20.3062 22.1938L21.2638 23.1513L23.3122 19.7373C23.5608 19.3229 24.0983 19.1886 24.5127 19.4372C24.9271 19.6858 25.0614 20.2233 24.8128 20.6377Z" fill="white"/>
<path d="M19.25 9.25C19.25 12.1495 16.8995 14.5 14 14.5C11.1005 14.5 8.75 12.1495 8.75 9.25C8.75 6.35051 11.1005 4 14 4C16.8995 4 19.25 6.35051 19.25 9.25ZM14 12.75C15.933 12.75 17.5 11.183 17.5 9.25C17.5 7.317 15.933 5.75 14 5.75C12.067 5.75 10.5 7.317 10.5 9.25C10.5 11.183 12.067 12.75 14 12.75Z" fill="white"/>
<path d="M14.4481 25C14.2505 24.4409 14.1142 23.8529 14.0474 23.2439H5.25C5.25249 22.812 5.51907 21.5183 6.70617 20.3312C7.84762 19.1897 9.99404 18 14 18C14.4559 18 14.8876 18.0154 15.2966 18.0444C15.6906 17.4471 16.1638 16.9066 16.7013 16.4378C15.8849 16.3168 14.987 16.25 14 16.25C5.25 16.25 3.5 21.5 3.5 23.25C3.5 25 5.25 25 5.25 25H14.4481Z" fill="white"/>
</svg>
