<svg width="33" height="32" viewBox="0 0 33 32" fill="none" xmlns="http://www.w3.org/2000/svg">
<path d="M7.8208 16C7.8208 11.0294 11.8502 7 16.8208 7C21.7914 7 25.8208 11.0294 25.8208 16C25.8208 20.9706 21.7914 25 16.8208 25C11.8502 25 7.8208 20.9706 7.8208 16ZM16.2583 8.21112C15.5052 8.44144 14.756 9.13438 14.1351 10.2985C13.9408 10.6629 13.7642 11.0653 13.6089 11.5H16.2583V8.21112ZM12.4215 11.5C12.6223 10.8716 12.8645 10.2904 13.1425 9.76907C13.3436 9.39209 13.568 9.03896 13.814 8.71939C12.4121 9.29898 11.2141 10.2716 10.3573 11.5H12.4215ZM11.7678 15.4375C11.8013 14.4511 11.9222 13.5044 12.1183 12.625H9.70363C9.29379 13.4877 9.0362 14.4368 8.96558 15.4375H11.7678ZM13.2735 12.625C13.0634 13.4856 12.93 14.4338 12.8935 15.4375H16.2583V12.625H13.2735ZM17.3833 12.625V15.4375H20.7481C20.7116 14.4338 20.5782 13.4856 20.3681 12.625H17.3833ZM12.8935 16.5625C12.93 17.5662 13.0634 18.5144 13.2735 19.375H16.2583V16.5625H12.8935ZM17.3833 16.5625V19.375H20.3681C20.5782 18.5144 20.7116 17.5662 20.7481 16.5625H17.3833ZM13.6089 20.5C13.7642 20.9347 13.9408 21.337 14.1351 21.7015C14.756 22.8656 15.5052 23.5585 16.2583 23.7889V20.5H13.6089ZM13.814 23.2806C13.568 22.961 13.3436 22.6079 13.1425 22.2309C12.8645 21.7096 12.6223 21.1284 12.4215 20.5H10.3573C11.2141 21.7283 12.4121 22.701 13.814 23.2806ZM12.1183 19.375C11.9222 18.4956 11.8013 17.5489 11.7678 16.5625H8.96558C9.0362 17.5632 9.29379 18.5123 9.70363 19.375H12.1183ZM19.8276 23.2806C21.2295 22.701 22.4275 21.7283 23.2843 20.5H21.2201C21.0193 21.1284 20.7771 21.7096 20.4991 22.2309C20.298 22.6079 20.0736 22.961 19.8276 23.2806ZM17.3833 20.5V23.7889C18.1364 23.5585 18.8856 22.8656 19.5065 21.7015C19.7008 21.337 19.8774 20.9347 20.0327 20.5H17.3833ZM21.5233 19.375H23.938C24.3478 18.5123 24.6054 17.5632 24.676 16.5625H21.8738C21.8403 17.5489 21.7194 18.4956 21.5233 19.375ZM24.676 15.4375C24.6054 14.4368 24.3478 13.4877 23.938 12.625H21.5233C21.7194 13.5044 21.8403 14.4511 21.8738 15.4375H24.676ZM20.4991 9.76907C20.7771 10.2904 21.0193 10.8716 21.2201 11.5H23.2843C22.4275 10.2716 21.2295 9.29898 19.8276 8.71939C20.0736 9.03896 20.298 9.39209 20.4991 9.76907ZM20.0327 11.5C19.8774 11.0653 19.7008 10.6629 19.5065 10.2985C18.8856 9.13438 18.1364 8.44144 17.3833 8.21112V11.5H20.0327Z" fill="white"/>
</svg>
