<svg width="28" height="29" viewBox="0 0 28 29" fill="none" xmlns="http://www.w3.org/2000/svg">
<path d="M4.6863 21.3144C5.05449 21.6837 5.23885 22.1978 5.18916 22.7169C5.07779 23.8801 4.82128 25.0907 4.49185 26.2153C6.93291 25.6512 8.42376 24.9967 9.10143 24.6533C9.48609 24.4584 9.92918 24.4123 10.3457 24.524C11.4969 24.8327 12.7238 25 14 25C20.9923 25 26.25 20.0868 26.25 14.5C26.25 8.9132 20.9923 4 14 4C7.0077 4 1.75 8.9132 1.75 14.5C1.75 17.0692 2.83028 19.4532 4.6863 21.3144ZM3.82357 28.1481C3.81178 28.1505 3.79998 28.1528 3.78816 28.1551C3.62746 28.1868 3.46364 28.218 3.29668 28.2486C3.06249 28.2915 2.82213 28.3332 2.57551 28.3736C2.22723 28.4306 1.96064 28.0662 2.09821 27.7412C2.18809 27.5289 2.2767 27.3064 2.36303 27.0756C2.41787 26.929 2.47178 26.7792 2.52453 26.6265C2.5268 26.6199 2.52907 26.6133 2.53134 26.6067C2.96489 25.3472 3.31794 23.8995 3.44712 22.5501C1.30036 20.3973 0 17.5815 0 14.5C0 7.73451 6.26801 2.25 14 2.25C21.732 2.25 28 7.73451 28 14.5C28 21.2655 21.732 26.75 14 26.75C12.5707 26.75 11.1914 26.5626 9.89247 26.2143C8.98339 26.675 7.02509 27.5136 3.82357 28.1481Z" fill="white"/>
</svg>
