<svg width="24" height="20" viewBox="0 0 24 20" fill="none" xmlns="http://www.w3.org/2000/svg">
<path d="M20.0383 14.8554C22.5919 12.5805 24 9.99908 24 9.99908C24 9.99908 19.5 1.74908 12 1.74908C10.4769 1.74908 9.07758 2.08931 7.81451 2.63158L8.97081 3.78789C9.91475 3.44884 10.9266 3.24908 12 3.24908C15.1791 3.24908 17.8185 5.00135 19.7518 6.93474C20.7055 7.88844 21.4468 8.84698 21.9491 9.56771C22.0582 9.72424 22.1556 9.8689 22.241 9.99908C22.1556 10.1293 22.0582 10.2739 21.9491 10.4305C21.4468 11.1512 20.7055 12.1097 19.7518 13.0634C19.5046 13.3106 19.2458 13.5549 18.9759 13.7929L20.0383 14.8554Z" fill="#707070"/>
<path d="M16.9462 11.7633C17.1429 11.2119 17.25 10.618 17.25 9.99908C17.25 7.09958 14.8995 4.74908 12 4.74908C11.3811 4.74908 10.7872 4.85618 10.2358 5.05286L11.4693 6.28635C11.6426 6.26178 11.8198 6.24908 12 6.24908C14.0711 6.24908 15.75 7.92801 15.75 9.99908C15.75 10.1792 15.7373 10.3564 15.7127 10.5298L16.9462 11.7633Z" fill="#707070"/>
<path d="M12.5308 13.7118L13.7642 14.9453C13.2129 15.142 12.6189 15.2491 12 15.2491C9.1005 15.2491 6.75 12.8986 6.75 9.99908C6.75 9.38014 6.85711 8.78622 7.05379 8.23483L8.28727 9.46831C8.26271 9.6417 8.25 9.81891 8.25 9.99908C8.25 12.0701 9.92893 13.7491 12 13.7491C12.1802 13.7491 12.3574 13.7364 12.5308 13.7118Z" fill="#707070"/>
<path d="M5.02416 6.2052C4.75418 6.44323 4.4954 6.6875 4.24816 6.93474C3.29446 7.88844 2.55324 8.84698 2.05091 9.56771C1.94181 9.72424 1.84444 9.8689 1.75905 9.99908C1.84444 10.1293 1.94181 10.2739 2.05091 10.4305C2.55324 11.1512 3.29446 12.1097 4.24816 13.0634C6.18155 14.9968 8.82093 16.7491 12 16.7491C13.0734 16.7491 14.0853 16.5493 15.0292 16.2103L16.1855 17.3666C14.9224 17.9088 13.5231 18.2491 12 18.2491C4.5 18.2491 0 9.99908 0 9.99908C0 9.99908 1.40807 7.41761 3.96168 5.14271L5.02416 6.2052Z" fill="#707070"/>
<path d="M20.4697 19.5294L2.46967 1.52941L3.53033 0.46875L21.5303 18.4688L20.4697 19.5294Z" fill="#707070"/>
</svg>
