<svg width="28" height="29" viewBox="0 0 28 29" fill="none" xmlns="http://www.w3.org/2000/svg">
<path d="M14.0001 8.81987C10.863 8.81987 8.31998 11.3629 8.31998 14.5C8.31998 17.637 10.863 20.18 14.0001 20.18C17.1371 20.18 19.6801 17.637 19.6801 14.5C19.6801 11.3629 17.1371 8.81987 14.0001 8.81987ZM10.07 14.5C10.07 12.3294 11.8295 10.5699 14.0001 10.5699C16.1706 10.5699 17.9301 12.3294 17.9301 14.5C17.9301 16.6705 16.1706 18.43 14.0001 18.43C11.8295 18.43 10.07 16.6705 10.07 14.5Z" fill="white"/>
<path d="M17.1438 2.85091C16.2199 -0.283637 11.7801 -0.283635 10.8562 2.85091L10.6919 3.40814C10.4168 4.34159 9.35062 4.78321 8.49602 4.31771L7.98587 4.03983C5.11612 2.47667 1.97667 5.61612 3.53983 8.48587L3.81771 8.99602C4.28321 9.85062 3.84159 10.9168 2.90814 11.1919L2.35091 11.3562C-0.783637 12.2801 -0.783635 16.7199 2.35091 17.6438L2.90814 17.8081C3.84159 18.0832 4.28321 19.1494 3.81771 20.004L3.53983 20.5141C1.97667 23.3839 5.11611 26.5233 7.98587 24.9602L8.49602 24.6823C9.35062 24.2168 10.4168 24.6584 10.6919 25.5919L10.8562 26.1491C11.7801 29.2836 16.2199 29.2836 17.1438 26.1491L17.3081 25.5919C17.5832 24.6584 18.6494 24.2168 19.504 24.6823L20.0141 24.9602C22.8839 26.5233 26.0233 23.3839 24.4602 20.5141L24.1823 20.004C23.7168 19.1494 24.1584 18.0832 25.0919 17.8081L25.6491 17.6438C28.7836 16.7199 28.7836 12.2801 25.6491 11.3562L25.0919 11.1919C24.1584 10.9168 23.7168 9.85062 24.1823 8.99602L24.4602 8.48587C26.0233 5.61611 22.8839 2.47668 20.0141 4.03983L19.504 4.31771C18.6494 4.78321 17.5832 4.34159 17.3081 3.40814L17.1438 2.85091ZM12.5348 3.34567C12.9654 1.88478 15.0346 1.88478 15.4652 3.34567L15.6295 3.9029C16.2198 5.90574 18.5074 6.85331 20.3411 5.85452L20.8512 5.57664C22.1887 4.8481 23.6519 6.31129 22.9234 7.64877L22.6455 8.15892C21.6467 9.99257 22.5943 12.2802 24.5971 12.8705L25.1543 13.0348C26.6152 13.4654 26.6152 15.5346 25.1543 15.9652L24.5971 16.1295C22.5943 16.7198 21.6467 19.0074 22.6455 20.8411L22.9234 21.3512C23.6519 22.6887 22.1887 24.1519 20.8512 23.4234L20.3411 23.1455C18.5074 22.1467 16.2198 23.0943 15.6295 25.0971L15.4652 25.6543C15.0346 27.1152 12.9654 27.1152 12.5348 25.6543L12.3705 25.0971C11.7802 23.0943 9.49257 22.1467 7.65892 23.1455L7.14877 23.4234C5.81129 24.1519 4.3481 22.6887 5.07664 21.3512L5.35451 20.8411C6.35331 19.0074 5.40574 16.7198 3.4029 16.1295L2.84567 15.9652C1.38478 15.5346 1.38478 13.4654 2.84567 13.0348L3.4029 12.8705C5.40574 12.2802 6.35331 9.99257 5.35452 8.15892L5.07664 7.64877C4.3481 6.31129 5.81129 4.8481 7.14877 5.57664L7.65892 5.85452C9.49257 6.85331 11.7802 5.90574 12.3705 3.9029L12.5348 3.34567Z" fill="white"/>
</svg>
