<svg width="64" height="64" viewBox="0 0 64 64" fill="none" xmlns="http://www.w3.org/2000/svg">
<rect width="64" height="64" rx="32" fill="#ADB5BD"/>
<path d="M47.0906 29.1169C47.2788 30.1869 47.3669 31.2804 47.3669 32.368C47.3669 37.2357 45.6268 41.351 42.5991 44.1376H42.605C39.9536 46.5832 36.3146 48 31.9995 48C25.9501 48 20.418 44.5902 17.7019 39.1875C15.4327 34.6666 15.4327 29.3403 17.7019 24.8194C20.418 19.4108 25.9501 16.0011 31.9995 16.0011C35.9736 15.954 39.8125 17.4473 42.705 20.1633L38.1371 24.7313C36.4851 23.1557 34.2805 22.2974 31.9995 22.3327C27.8254 22.3327 24.2804 25.1487 23.0165 28.9406C22.3463 30.9276 22.3463 33.0793 23.0165 35.0664H23.0224C24.2922 38.8524 27.8313 41.6684 32.0053 41.6684C34.1629 41.6684 36.0148 41.1158 37.4492 40.1399H37.4433C39.1306 39.0229 40.2829 37.2651 40.6415 35.278H31.9995V29.1169H47.0906Z" fill="white"/>
</svg>
