<svg width="28" height="28" viewBox="0 0 28 28" fill="none" xmlns="http://www.w3.org/2000/svg">
<path fill-rule="evenodd" clip-rule="evenodd" d="M17.5 21.875C17.5 22.3582 17.1082 22.75 16.625 22.75L2.625 22.75C2.14175 22.75 1.75 22.3582 1.75 21.875L1.75 6.125C1.75 5.64175 2.14175 5.25 2.625 5.25L16.625 5.25C17.1083 5.25 17.5 5.64175 17.5 6.125L17.5 9.625C17.5 10.1082 17.8918 10.5 18.375 10.5C18.8582 10.5 19.25 10.1082 19.25 9.625L19.25 6.125C19.25 4.67525 18.0747 3.5 16.625 3.5L2.625 3.5C1.17526 3.5 8.66567e-07 4.67525 8.03197e-07 6.125L1.14742e-07 21.875C5.13719e-08 23.3247 1.17525 24.5 2.625 24.5L16.625 24.5C18.0747 24.5 19.25 23.3247 19.25 21.875L19.25 18.375C19.25 17.8918 18.8582 17.5 18.375 17.5C17.8918 17.5 17.5 17.8918 17.5 18.375L17.5 21.875Z" fill="white"/>
<path fill-rule="evenodd" clip-rule="evenodd" d="M27.7437 14.6187C28.0854 14.277 28.0854 13.723 27.7437 13.3813L22.4937 8.13128C22.152 7.78957 21.598 7.78957 21.2563 8.13128C20.9146 8.47299 20.9146 9.02701 21.2563 9.36872L25.0126 13.125L9.625 13.125C9.14175 13.125 8.75 13.5167 8.75 14C8.75 14.4832 9.14175 14.875 9.625 14.875L25.0126 14.875L21.2563 18.6313C20.9146 18.973 20.9146 19.527 21.2563 19.8687C21.598 20.2104 22.152 20.2104 22.4937 19.8687L27.7437 14.6187Z" fill="white"/>
</svg>
