<svg width="28" height="29" viewBox="0 0 28 29" fill="none" xmlns="http://www.w3.org/2000/svg">
<path d="M14 14.5C16.8995 14.5 19.25 12.1495 19.25 9.25C19.25 6.35051 16.8995 4 14 4C11.1005 4 8.75 6.35051 8.75 9.25C8.75 12.1495 11.1005 14.5 14 14.5ZM17.5 9.25C17.5 11.183 15.933 12.75 14 12.75C12.067 12.75 10.5 11.183 10.5 9.25C10.5 7.317 12.067 5.75 14 5.75C15.933 5.75 17.5 7.317 17.5 9.25Z" fill="white"/>
<path d="M24.5 23.25C24.5 25 22.75 25 22.75 25H5.25C5.25 25 3.5 25 3.5 23.25C3.5 21.5 5.25 16.25 14 16.25C22.75 16.25 24.5 21.5 24.5 23.25ZM22.75 23.2439C22.7475 22.812 22.4809 21.5183 21.2938 20.3312C20.1523 19.1897 18.0059 18 14 18C9.99404 18 7.84762 19.1897 6.70617 20.3312C5.51907 21.5183 5.25249 22.812 5.25 23.2439H22.75Z" fill="white"/>
</svg>
