<svg width="28" height="29" viewBox="0 0 28 29" fill="none" xmlns="http://www.w3.org/2000/svg">
<path d="M14 26.75C7.23451 26.75 1.75 21.2655 1.75 14.5C1.75 7.73451 7.23451 2.25 14 2.25C20.7655 2.25 26.25 7.73451 26.25 14.5C26.25 21.2655 20.7655 26.75 14 26.75ZM14 28.5C21.732 28.5 28 22.232 28 14.5C28 6.76801 21.732 0.5 14 0.5C6.26801 0.5 0 6.76801 0 14.5C0 22.232 6.26801 28.5 14 28.5Z" fill="white"/>
<path d="M9.19644 10.6258C9.18316 10.8641 9.37983 11.0573 9.61859 11.0573H11.0614C11.3031 11.0573 11.4952 10.8602 11.5276 10.6208C11.6833 9.47257 12.4714 8.63562 13.8761 8.63562C15.0758 8.63562 16.1756 9.23547 16.1756 10.6796C16.1756 11.7904 15.5202 12.3014 14.4871 13.079C13.3096 13.9343 12.3765 14.9341 12.4432 16.5559L12.4483 16.9353C12.4516 17.1746 12.6465 17.3668 12.8858 17.3668H14.3051C14.5467 17.3668 14.7426 17.1709 14.7426 16.9293V16.7448C14.7426 15.4895 15.2203 15.1229 16.5088 14.1454C17.5752 13.3345 18.6861 12.4347 18.6861 10.5463C18.6861 7.90247 16.4533 6.625 14.0094 6.625C11.792 6.625 9.36187 7.65857 9.19644 10.6258ZM11.9211 20.7104C11.9211 21.6436 12.6653 22.3323 13.6873 22.3323C14.7537 22.3323 15.4869 21.6436 15.4869 20.7104C15.4869 19.744 14.7537 19.0664 13.6873 19.0664C12.6653 19.0664 11.9211 19.744 11.9211 20.7104Z" fill="white"/>
</svg>
