<svg width="16" height="17" viewBox="0 0 16 17" fill="none" xmlns="http://www.w3.org/2000/svg">
<path d="M11.7422 10.8439C12.5329 9.7673 13 8.4382 13 7C13 3.41015 10.0899 0.5 6.5 0.5C2.91015 0.5 0 3.41015 0 7C0 10.5899 2.91015 13.5 6.5 13.5C7.93858 13.5 9.26801 13.0327 10.3448 12.2415L10.3439 12.2422C10.3734 12.2822 10.4062 12.3204 10.4424 12.3566L14.2929 16.2071C14.6834 16.5976 15.3166 16.5976 15.7071 16.2071C16.0976 15.8166 16.0976 15.1834 15.7071 14.7929L11.8566 10.9424C11.8204 10.9062 11.7822 10.8734 11.7422 10.8439ZM12 7C12 10.0376 9.53757 12.5 6.5 12.5C3.46243 12.5 1 10.0376 1 7C1 3.96243 3.46243 1.5 6.5 1.5C9.53757 1.5 12 3.96243 12 7Z" fill="white"/>
</svg>
